<?xml version="1.0" standalone="no"?><!DOCTYPE svg PUBLIC "-//W3C//DTD SVG 1.1//EN" "http://www.w3.org/Graphics/SVG/1.1/DTD/svg11.dtd"><svg t="1626708696067" class="icon" viewBox="0 0 1024 1024" version="1.1" xmlns="http://www.w3.org/2000/svg" p-id="7201" xmlns:xlink="http://www.w3.org/1999/xlink" width="200" height="200"><defs><style type="text/css"></style></defs><path d="M586.84 404.7c4.42 9.06 6.66 18.78 6.66 28.86 0 36.12-29.36 65.52-65.48 65.52H522v52.34c0 5.52-4.46 10-10 10-5.52 0-10-4.48-10-10v-52.34h-61.52c-5.52 0-10-4.48-10-10 0-5.54 4.48-10 10-10h71.48c0.02 0 0.04-0.02 0.04-0.02 0.02 0 0.04 0.02 0.04 0.02h15.98c25.08 0 45.48-20.42 45.48-45.52 0-7-1.54-13.74-4.62-20.02v-0.02c-7.72-15.7-23.38-25.46-40.86-25.46H496c-25.86 0-49.36-15.28-59.88-38.92v-0.02c-3.74-8.38-5.62-17.32-5.62-26.56 0-36.12 29.38-65.5 65.5-65.5h6v-52.36c0-5.52 4.48-10 10-10 5.54 0 10 4.48 10 10v52.36h61.5c5.54 0 10 4.46 10 10 0 5.52-4.46 10-10 10H496c-25.1 0-45.5 20.4-45.5 45.5 0 6.42 1.3 12.64 3.9 18.44a45.572 45.572 0 0 0 41.6 27.06h32.02c25.18 0 47.7 14.04 58.82 36.64z" fill="#23130D" p-id="7202"></path><path d="M881.42 429.68c-29.92-24.42-72.56-45.78-123.58-62.04-2.14-82.48-29.56-161.66-77.62-223.72-47.7-61.6-109-96.92-168.22-96.92s-120.52 35.32-168.22 96.92c-48.08 62.08-75.5 141.34-77.6 223.72-51.04 16.24-93.68 37.62-123.6 62.04-33.68 27.48-51.48 59.04-51.48 91.24 0 0.84 0 1.72 0.02 2.58 0 0.16 0.02 0.32 0.04 0.48 1.04 89.34 47.78 200.5 122.58 291 16.38 19.84 33.9 38.24 52.16 55 0.32 0.36 0.68 0.68 1.04 0.96 25.56 23.34 52.58 43.4 80.12 59.28 53.84 31.04 109.34 46.78 164.94 46.78s111.1-15.74 164.94-46.78c27.5-15.88 54.5-35.9 80.04-59.2 0.42-0.34 0.82-0.7 1.18-1.08 18.24-16.74 35.72-35.14 52.1-54.96 74.84-90.56 121.62-201.82 122.6-291.2v-0.26c0.02-0.64 0.02-1.28 0.02-1.9 0-0.24 0.02-0.46 0.02-0.7v-0.06c-0.02-32.18-17.82-63.7-51.48-91.18z m-142.34 75.7c1.08-3.46 2.14-6.92 3.12-10.42 0.04-0.14 0.06-0.28 0.1-0.42 3.6-12.84 6.6-26 8.96-39.38 46.62 18.96 73.1 42.62 73.1 65.76 0 32.8-51.64 65.06-133.72 84.78 0.46-0.66 0.94-1.36 1.4-2.04 1.14-1.64 2.3-3.24 3.4-4.92 1.18-1.76 2.3-3.6 3.44-5.4 1.04-1.64 2.1-3.26 3.12-4.92 1.14-1.86 2.2-3.76 3.3-5.64 0.98-1.68 2-3.32 2.94-5.02 1.1-1.94 2.12-3.94 3.18-5.92 0.92-1.7 1.84-3.36 2.74-5.08 1-1.96 1.96-3.96 2.92-5.96 0.88-1.78 1.8-3.54 2.64-5.34 0.9-1.9 1.74-3.86 2.62-5.78 0.86-1.94 1.76-3.84 2.6-5.8 0.78-1.82 1.5-3.68 2.26-5.5 0.88-2.12 1.76-4.22 2.6-6.36 0.64-1.62 1.22-3.28 1.82-4.9 0.9-2.4 1.84-4.8 2.68-7.22 0.48-1.32 0.88-2.66 1.34-3.96 0.94-2.8 1.9-5.58 2.8-8.4 0.22-0.72 0.42-1.44 0.64-2.16z m-453.06-129.34c0.02-0.32 0.02-0.62 0.02-0.94 0.62-80.74 26.74-158.5 73.56-218.94C403.48 99.5 459.02 67 512 67s108.52 32.5 152.4 89.16c46.82 60.44 72.94 138.2 73.56 219.08 0.02 0.94 0.02 1.88 0.02 2.82 0 20.78-1.5 41.58-4.5 61.84v0.04c-0.26 1.72-0.56 3.42-0.84 5.14-0.38 2.44-0.76 4.88-1.18 7.3-0.34 1.92-0.74 3.8-1.12 5.7-0.42 2.22-0.84 4.46-1.3 6.66-0.4 1.92-0.86 3.82-1.3 5.74-0.5 2.14-0.96 4.3-1.48 6.44-0.48 1.92-1 3.82-1.5 5.74-0.54 2.08-1.06 4.2-1.64 6.28-0.54 1.92-1.12 3.8-1.68 5.7-0.62 2.04-1.2 4.08-1.82 6.1-0.6 1.92-1.26 3.8-1.88 5.68-0.66 1.98-1.3 3.98-1.98 5.92-0.66 1.9-1.36 3.76-2.06 5.62-0.7 1.92-1.4 3.86-2.14 5.76-0.7 1.86-1.48 3.7-2.22 5.54-0.76 1.86-1.5 3.76-2.3 5.6-0.78 1.84-1.6 3.62-2.4 5.42-0.82 1.84-1.62 3.66-2.46 5.48-0.82 1.78-1.7 3.52-2.56 5.28-0.86 1.78-1.72 3.58-2.62 5.32-0.88 1.74-1.8 3.44-2.72 5.16-0.92 1.72-1.82 3.46-2.78 5.16-0.92 1.7-1.9 3.34-2.86 5-0.96 1.68-1.94 3.38-2.94 5.02-0.98 1.64-2 3.24-3 4.84-1.02 1.62-2.04 3.26-3.1 4.86-1.02 1.58-2.1 3.12-3.14 4.66-1.08 1.58-2.16 3.16-3.26 4.7-1.08 1.5-2.18 2.98-3.28 4.46-1.12 1.52-2.26 3.06-3.4 4.54-1.12 1.44-2.26 2.86-3.4 4.26-0.84 1.04-1.66 2.06-2.52 3.08-1 0.2-2.02 0.38-3.02 0.56-1.38 0.26-2.74 0.5-4.12 0.74-1.54 0.28-3.1 0.54-4.64 0.8-1.38 0.24-2.76 0.46-4.16 0.7-1.58 0.24-3.16 0.5-4.76 0.74-1.38 0.22-2.76 0.42-4.14 0.64-1.62 0.24-3.24 0.46-4.88 0.7-1.38 0.2-2.76 0.4-4.16 0.58l-4.94 0.66-4.22 0.54-5 0.6-4.24 0.48c-1.7 0.2-3.4 0.38-5.1 0.56-1.4 0.14-2.82 0.3-4.24 0.44l-5.18 0.48c-1.42 0.14-2.84 0.28-4.26 0.4-1.74 0.16-3.48 0.3-5.24 0.44l-4.26 0.36c-1.76 0.12-3.54 0.24-5.3 0.38l-4.28 0.3c-1.8 0.12-3.58 0.22-5.38 0.32-1.42 0.08-2.84 0.18-4.26 0.26-1.82 0.1-3.66 0.18-5.5 0.28-1.4 0.06-2.8 0.14-4.2 0.2-1.86 0.08-3.76 0.14-5.64 0.22-1.36 0.04-2.72 0.1-4.08 0.14-2 0.08-4.02 0.12-6.02 0.18-1.26 0.02-2.5 0.06-3.76 0.1-2.2 0.04-4.4 0.08-6.62 0.1l-3.18 0.06a803.656 803.656 0 0 1-19.68 0l-3.18-0.06c-2.22-0.02-4.44-0.06-6.66-0.1-1.22-0.04-2.44-0.08-3.68-0.1-2.04-0.06-4.08-0.1-6.12-0.18-1.32-0.04-2.64-0.1-3.98-0.14-1.92-0.08-3.86-0.14-5.8-0.24-1.34-0.04-2.68-0.12-4.02-0.18-1.92-0.1-3.82-0.18-5.72-0.3-1.34-0.06-2.7-0.16-4.04-0.24-1.88-0.1-3.74-0.22-5.62-0.34-1.36-0.08-2.72-0.2-4.08-0.28-1.84-0.14-3.7-0.26-5.52-0.4-1.38-0.12-2.72-0.24-4.08-0.34-1.82-0.16-3.66-0.3-5.46-0.46-1.36-0.12-2.72-0.26-4.1-0.38-1.78-0.18-3.58-0.34-5.36-0.52l-4.1-0.42c-1.76-0.2-3.5-0.38-5.26-0.58-1.38-0.14-2.74-0.32-4.12-0.48-1.72-0.2-3.42-0.4-5.12-0.62-1.4-0.16-2.78-0.34-4.16-0.52l-5-0.66-4.2-0.6c-1.6-0.24-3.22-0.46-4.82-0.7l-4.26-0.66c-1.56-0.24-3.1-0.48-4.64-0.74-1.44-0.22-2.88-0.48-4.32-0.72-1.48-0.24-2.96-0.5-4.42-0.76-1.48-0.26-2.94-0.52-4.4-0.8-0.84-0.14-1.68-0.3-2.52-0.46-0.92-1.1-1.8-2.2-2.7-3.3-1.04-1.3-2.1-2.58-3.12-3.92-1.26-1.62-2.48-3.28-3.72-4.94-1-1.34-1.98-2.68-2.96-4.04-1.22-1.72-2.4-3.46-3.6-5.2-0.94-1.38-1.88-2.74-2.8-4.16-1.18-1.78-2.32-3.6-3.46-5.42-0.88-1.42-1.78-2.82-2.64-4.26-1.14-1.86-2.22-3.78-3.32-5.68-0.84-1.44-1.68-2.86-2.5-4.34-1.08-1.94-2.12-3.92-3.16-5.9-0.78-1.46-1.58-2.92-2.34-4.42-1.02-2.02-2.02-4.08-3.02-6.14-0.72-1.48-1.46-2.96-2.16-4.46-0.98-2.12-1.92-4.26-2.88-6.42-0.66-1.48-1.34-2.96-1.98-4.46-0.94-2.2-1.84-4.46-2.74-6.7-0.6-1.48-1.22-2.94-1.8-4.44-0.88-2.32-1.74-4.66-2.6-7.02-0.52-1.46-1.08-2.9-1.58-4.36-0.86-2.44-1.68-4.94-2.48-7.42-0.46-1.38-0.94-2.78-1.38-4.18-0.82-2.62-1.6-5.28-2.36-7.92-0.38-1.3-0.78-2.58-1.16-3.9-0.78-2.84-1.52-5.72-2.26-8.62-0.28-1.12-0.6-2.24-0.88-3.38-0.8-3.24-1.52-6.5-2.24-9.78-0.18-0.8-0.38-1.6-0.54-2.4-1.76-8.22-3.24-16.54-4.48-24.96a426.454 426.454 0 0 1-4.5-61.88v-2.02z m47.34 229.66c-82.1-19.72-133.72-51.98-133.72-84.78 0-23.14 26.46-46.8 73.1-65.76 9.96 56.24 31.06 108.44 60.62 150.54zM512 957c-79.2 0-146.46-33.46-198.16-72.78 60.56 13.88 128.16 21.14 198.16 21.14s137.6-7.26 198.16-21.14C658.46 923.54 591.2 957 512 957z m282.84-154.76c-12.72 15.4-29.18 33.58-49.02 51.96-68.56 20.38-149.34 31.16-233.82 31.16s-165.26-10.78-233.82-31.16c-19.84-18.38-36.3-36.56-49.02-51.96-3.44-4.16-6.8-8.38-10.12-12.64 77.84 32.5 181.98 50.8 292.96 50.8s215.12-18.3 292.96-50.8c-3.32 4.26-6.68 8.48-10.12 12.64z m34.24-46.06C751.98 797 636.64 820.4 512 820.4s-239.98-23.4-317.08-64.22a575.822 575.822 0 0 1-37.02-63.7c76.06 51.2 208.32 82.94 354.1 82.94s278.06-31.74 354.1-82.94a575.822 575.822 0 0 1-37.02 63.7z m55.18-104.16c-29.34 29.6-78.58 55-142.68 73.52-67.66 19.54-147.04 29.88-229.58 29.88s-161.92-10.34-229.58-29.88c-64.1-18.52-113.34-43.92-142.68-73.52-8.32-20.84-14.96-41.58-19.74-61.68 60.64 69.58 210.48 118.18 388.72 118.76 1.08 0.02 2.18 0.02 3.28 0.02s2.2 0 3.28-0.02c89.12-0.3 171.16-12.58 238.46-33.5 67.32-20.92 119.94-50.48 150.26-85.28-4.78 20.12-11.42 40.84-19.74 61.7z m28.62-130.56c0 0.58-0.02 1.14-0.02 1.72-1.4 42.68-42.24 83.48-115.02 114.88-75.52 32.6-175.96 50.72-282.84 51.04h-0.2c-0.92 0.02-1.86 0.02-2.8 0.02-0.94 0.02-1.9 0-2.82-0.02h-0.2c-106.86-0.32-207.3-18.44-282.84-51.04-72.64-31.34-113.44-72.04-115-114.66 0-0.82-0.04-1.66-0.04-2.48v-0.04c0.02-51.12 57.68-100.06 155.04-132.22l0.06 1.66c0.1 3.7 0.24 7.4 0.44 11.1l0.06 1.22c0.2 3.9 0.48 7.76 0.8 11.62 0.08 0.94 0.14 1.88 0.22 2.82 0.34 3.78 0.72 7.54 1.14 11.28 0.1 0.92 0.22 1.82 0.32 2.74 0.16 1.26 0.3 2.52 0.46 3.78-58.12 22.72-90 53.12-90 86.04 0 47.66 65.94 88.84 176.4 110.14 47.52 9.2 101.44 14.06 155.96 14.06 54.46 0 108.38-4.86 155.94-14.04 0.22-0.04 0.46-0.1 0.68-0.16 110.06-21.34 175.74-62.44 175.74-110 0-32.92-31.88-63.32-90-86.04 1.96-15.22 3.12-30.7 3.48-46.22 97.36 32.18 155.06 81.12 155.06 132.26 0 0.18-0.02 0.36-0.02 0.54z" fill="#23130D" p-id="7203"></path><path d="M710.16 884.22C658.46 923.54 591.2 957 512 957s-146.46-33.46-198.16-72.78c60.56 13.88 128.16 21.14 198.16 21.14s137.6-7.26 198.16-21.14z" fill="#CC7B5A" p-id="7204"></path><path d="M710.16 884.22C658.46 923.54 591.2 957 512 957s-146.46-33.46-198.16-72.78c12.28 2.82 24.86 5.36 37.7 7.62 45.24 27.2 99.3 47.16 160.46 47.16s115.22-19.96 160.46-47.16c12.84-2.26 25.42-4.8 37.7-7.62z" opacity=".2" p-id="7205"></path><path d="M804.96 789.6c-3.32 4.26-6.68 8.48-10.12 12.64-12.72 15.4-29.18 33.58-49.02 51.96-68.56 20.38-149.34 31.16-233.82 31.16s-165.26-10.78-233.82-31.16c-19.84-18.38-36.3-36.56-49.02-51.96-3.44-4.16-6.8-8.38-10.12-12.64 77.84 32.5 181.98 50.8 292.96 50.8s215.12-18.3 292.96-50.8z" fill="#CC7B5A" p-id="7206"></path><path d="M804.96 789.6c-3.32 4.26-6.68 8.48-10.12 12.64-12.72 15.4-29.18 33.58-49.02 51.96-68.56 20.38-149.34 31.16-233.82 31.16s-165.26-10.78-233.82-31.16c-19.84-18.38-36.3-36.56-49.02-51.96-3.44-4.16-6.8-8.38-10.12-12.64 6.74 2.82 13.68 5.52 20.8 8.1 10.84 12.34 23.66 25.82 38.34 39.42 68.56 20.38 149.34 31.16 233.82 31.16s165.26-10.78 233.82-31.16c14.68-13.6 27.5-27.08 38.34-39.42 7.12-2.58 14.06-5.28 20.8-8.1z" opacity=".2" p-id="7207"></path><path d="M866.1 692.48a575.822 575.822 0 0 1-37.02 63.7C751.98 797 636.64 820.4 512 820.4s-239.98-23.4-317.08-64.22a575.822 575.822 0 0 1-37.02-63.7c76.06 51.2 208.32 82.94 354.1 82.94s278.06-31.74 354.1-82.94z" fill="#CC7B5A" p-id="7208"></path><path d="M866.1 692.48a575.822 575.822 0 0 1-37.02 63.7C751.98 797 636.64 820.4 512 820.4s-239.98-23.4-317.08-64.22a575.822 575.822 0 0 1-37.02-63.7c5.14 3.46 10.52 6.82 16.16 10.08 6.5 11.36 13.48 22.6 20.86 33.62C272.02 777 387.36 800.4 512 800.4s239.98-23.4 317.08-64.22c7.38-11.02 14.36-22.26 20.86-33.62 5.64-3.26 11.02-6.62 16.16-10.08z" opacity=".2" p-id="7209"></path><path d="M904 590.32c-4.78 20.12-11.42 40.84-19.74 61.7-29.34 29.6-78.58 55-142.68 73.52-67.66 19.54-147.04 29.88-229.58 29.88s-161.92-10.34-229.58-29.88c-64.1-18.52-113.34-43.92-142.68-73.52-8.32-20.84-14.96-41.58-19.74-61.68 60.64 69.58 210.48 118.18 388.72 118.76 1.08 0.02 2.18 0.02 3.28 0.02s2.2 0 3.28-0.02c89.12-0.3 171.16-12.58 238.46-33.5 67.32-20.92 119.94-50.48 150.26-85.28z" fill="#CC7B5A" p-id="7210"></path><path d="M904 590.32c-4.78 20.12-11.42 40.84-19.74 61.7-29.34 29.6-78.58 55-142.68 73.52-67.66 19.54-147.04 29.88-229.58 29.88s-161.92-10.34-229.58-29.88c-64.1-18.52-113.34-43.92-142.68-73.52-8.32-20.84-14.96-41.58-19.74-61.68 2.9 3.32 6 6.6 9.28 9.8 3.1 9.56 6.6 19.22 10.46 28.88 29.34 29.6 78.58 55 142.68 73.52 67.66 19.54 147.04 29.88 229.58 29.88s161.92-10.34 229.58-29.88c64.1-18.52 113.34-43.92 142.68-73.52 3.86-9.68 7.36-19.32 10.48-28.9a168.64 168.64 0 0 0 9.26-9.8z" opacity=".2" p-id="7211"></path><path d="M912.9 520.92c0 0.18-0.02 0.36-0.02 0.54 0 0.58-0.02 1.14-0.02 1.72-1.4 42.68-42.24 83.48-115.02 114.88-75.52 32.6-175.96 50.72-282.84 51.04h-0.2c-0.92 0.02-1.86 0.02-2.8 0.02-0.94 0.02-1.9 0-2.82-0.02h-0.2c-106.86-0.32-207.3-18.44-282.84-51.04-72.64-31.34-113.44-72.04-115-114.66 0-0.82-0.04-1.66-0.04-2.48v-0.04c0.02-51.12 57.68-100.06 155.04-132.22l0.06 1.66c0.1 3.7 0.24 7.4 0.44 11.1l0.06 1.22c0.2 3.9 0.48 7.76 0.8 11.62 0.08 0.94 0.14 1.88 0.22 2.82 0.34 3.78 0.72 7.54 1.14 11.28 0.1 0.92 0.22 1.82 0.32 2.74 0.16 1.26 0.3 2.52 0.46 3.78-58.12 22.72-90 53.12-90 86.04 0 47.66 65.94 88.84 176.4 110.14 47.52 9.2 101.44 14.06 155.96 14.06 54.46 0 108.38-4.86 155.94-14.04 0.22-0.04 0.46-0.1 0.68-0.16 110.06-21.34 175.74-62.44 175.74-110 0-32.92-31.88-63.32-90-86.04 1.96-15.22 3.12-30.7 3.48-46.22 97.36 32.18 155.06 81.12 155.06 132.26z" fill="#F8D3C9" p-id="7212"></path><path d="M912.9 520.92c0 0.18-0.02 0.36-0.02 0.54 0 0.58-0.02 1.14-0.02 1.72-1.4 42.68-42.24 83.48-115.02 114.88-75.52 32.6-175.96 50.72-282.84 51.04h-0.2c-0.92 0.02-1.86 0.02-2.8 0.02-0.94 0.02-1.9 0-2.82-0.02h-0.2c-106.86-0.32-207.3-18.44-282.84-51.04-72.64-31.34-113.44-72.04-115-114.66 0-0.82-0.04-1.66-0.04-2.48v-0.04c0-4.46 0.44-8.92 1.34-13.34 7.58 38.58 47.36 75 113.7 103.62 75.54 32.6 175.98 50.72 282.84 51.04h0.2c0.92 0.02 1.88 0.04 2.82 0.02 0.94 0 1.88 0 2.8-0.02h0.2c106.88-0.32 207.32-18.44 282.84-51.04 66.36-28.62 106.16-65.08 113.74-103.64 0.88 4.44 1.32 8.92 1.32 13.4z" opacity=".2" p-id="7213"></path><path d="M824.36 520.92c0 32.8-51.64 65.06-133.72 84.78 0.46-0.66 0.94-1.36 1.4-2.04 1.14-1.64 2.3-3.24 3.4-4.92 1.18-1.76 2.3-3.6 3.44-5.4 1.04-1.64 2.1-3.26 3.12-4.92 1.14-1.86 2.2-3.76 3.3-5.64 0.98-1.68 2-3.32 2.94-5.02 1.1-1.94 2.12-3.94 3.18-5.92 0.92-1.7 1.84-3.36 2.74-5.08 1-1.96 1.96-3.96 2.92-5.96 0.88-1.78 1.8-3.54 2.64-5.34 0.9-1.9 1.74-3.86 2.62-5.78 0.86-1.94 1.76-3.84 2.6-5.8 0.78-1.82 1.5-3.68 2.26-5.5 0.88-2.12 1.76-4.22 2.6-6.36 0.64-1.62 1.22-3.28 1.82-4.9 0.9-2.4 1.84-4.8 2.68-7.22 0.48-1.32 0.88-2.66 1.34-3.96 0.94-2.8 1.9-5.58 2.8-8.4 0.22-0.72 0.42-1.44 0.64-2.16 1.08-3.46 2.14-6.92 3.12-10.42 0.04-0.14 0.06-0.28 0.1-0.42 3.6-12.84 6.6-26 8.96-39.38 46.62 18.96 73.1 42.62 73.1 65.76zM333.36 605.7c-82.1-19.72-133.72-51.98-133.72-84.78 0-23.14 26.46-46.8 73.1-65.76 9.96 56.24 31.06 108.44 60.62 150.54z" fill="#E59D89" p-id="7214"></path><path d="M333.36 605.7c-9.68-2.32-18.94-4.82-27.74-7.48-25.3-38.28-43.82-84.22-53.74-133.58 6.42-3.28 13.38-6.44 20.86-9.48 9.96 56.24 31.06 108.44 60.62 150.54zM690.64 605.7c9.68-2.32 18.94-4.82 27.74-7.48 25.3-38.28 43.82-84.22 53.74-133.58-6.42-3.28-13.38-6.44-20.86-9.48-9.96 56.24-31.06 108.44-60.62 150.54z" opacity=".2" p-id="7215"></path><path d="M737.96 375.24c-0.62-80.88-26.74-158.64-73.56-219.08C620.52 99.5 564.98 67 512 67s-108.52 32.5-152.4 89.16c-46.82 60.44-72.94 138.2-73.56 218.94 0 0.32 0 0.62-0.02 0.94v2.02c0 20.82 1.52 41.62 4.5 61.88 1.24 8.42 2.72 16.74 4.48 24.96 0.16 0.8 0.36 1.6 0.54 2.4 0.72 3.28 1.44 6.54 2.24 9.78 0.28 1.14 0.6 2.26 0.88 3.38 0.74 2.9 1.48 5.78 2.26 8.62 0.38 1.32 0.78 2.6 1.16 3.9 0.76 2.64 1.54 5.3 2.36 7.92 0.44 1.4 0.92 2.8 1.38 4.18 0.8 2.48 1.62 4.98 2.48 7.42 0.5 1.46 1.06 2.9 1.58 4.36 0.86 2.36 1.72 4.7 2.6 7.02 0.58 1.5 1.2 2.96 1.8 4.44 0.9 2.24 1.8 4.5 2.74 6.7 0.64 1.5 1.32 2.98 1.98 4.46 0.96 2.16 1.9 4.3 2.88 6.42 0.7 1.5 1.44 2.98 2.16 4.46 1 2.06 2 4.12 3.02 6.14 0.76 1.5 1.56 2.96 2.34 4.42 1.04 1.98 2.08 3.96 3.16 5.9 0.82 1.48 1.66 2.9 2.5 4.34 1.1 1.9 2.18 3.82 3.32 5.68 0.86 1.44 1.76 2.84 2.64 4.26 1.14 1.82 2.28 3.64 3.46 5.42 0.92 1.42 1.86 2.78 2.8 4.16 1.2 1.74 2.38 3.48 3.6 5.2 0.98 1.36 1.96 2.7 2.96 4.04 1.24 1.66 2.46 3.32 3.72 4.94 1.02 1.34 2.08 2.62 3.12 3.92 0.9 1.1 1.78 2.2 2.7 3.3 0.84 0.16 1.68 0.32 2.52 0.46 1.46 0.28 2.92 0.54 4.4 0.8 1.46 0.26 2.94 0.52 4.42 0.76 1.44 0.24 2.88 0.5 4.32 0.72 1.54 0.26 3.08 0.5 4.64 0.74l4.26 0.66c1.6 0.24 3.22 0.46 4.82 0.7l4.2 0.6 5 0.66c1.38 0.18 2.76 0.36 4.16 0.52 1.7 0.22 3.4 0.42 5.12 0.62 1.38 0.16 2.74 0.34 4.12 0.48 1.76 0.2 3.5 0.38 5.26 0.58l4.1 0.42c1.78 0.18 3.58 0.34 5.36 0.52 1.38 0.12 2.74 0.26 4.1 0.38 1.8 0.16 3.64 0.3 5.46 0.46 1.36 0.1 2.7 0.22 4.08 0.34 1.82 0.14 3.68 0.26 5.52 0.4 1.36 0.08 2.72 0.2 4.08 0.28 1.88 0.12 3.74 0.24 5.62 0.34 1.34 0.08 2.7 0.18 4.04 0.24 1.9 0.12 3.8 0.2 5.72 0.3 1.34 0.06 2.68 0.14 4.02 0.18 1.94 0.1 3.88 0.16 5.8 0.24 1.34 0.04 2.66 0.1 3.98 0.14 2.04 0.08 4.08 0.12 6.12 0.18 1.24 0.02 2.46 0.06 3.68 0.1 2.22 0.04 4.44 0.08 6.66 0.1l3.18 0.06a810.216 810.216 0 0 0 19.68 0l3.18-0.06c2.22-0.02 4.42-0.06 6.62-0.1 1.26-0.04 2.5-0.08 3.76-0.1 2-0.06 4.02-0.1 6.02-0.18 1.36-0.04 2.72-0.1 4.08-0.14 1.88-0.08 3.78-0.14 5.64-0.22 1.4-0.06 2.8-0.14 4.2-0.2 1.84-0.1 3.68-0.18 5.5-0.28 1.42-0.08 2.84-0.18 4.26-0.26 1.8-0.1 3.58-0.2 5.38-0.32l4.28-0.3c1.76-0.14 3.54-0.26 5.3-0.38l4.26-0.36c1.76-0.14 3.5-0.28 5.24-0.44 1.42-0.12 2.84-0.26 4.26-0.4l5.18-0.48c1.42-0.14 2.84-0.3 4.24-0.44 1.7-0.18 3.4-0.36 5.1-0.56l4.24-0.48 5-0.6 4.22-0.54 4.94-0.66c1.4-0.18 2.78-0.38 4.16-0.58 1.64-0.24 3.26-0.46 4.88-0.7 1.38-0.22 2.76-0.42 4.14-0.64 1.6-0.24 3.18-0.5 4.76-0.74 1.4-0.24 2.78-0.46 4.16-0.7 1.54-0.26 3.1-0.52 4.64-0.8 1.38-0.24 2.74-0.48 4.12-0.74 1-0.18 2.02-0.36 3.02-0.56 0.86-1.02 1.68-2.04 2.52-3.08 1.14-1.4 2.28-2.82 3.4-4.26 1.14-1.48 2.28-3.02 3.4-4.54 1.1-1.48 2.2-2.96 3.28-4.46 1.1-1.54 2.18-3.12 3.26-4.7 1.04-1.54 2.12-3.08 3.14-4.66 1.06-1.6 2.08-3.24 3.1-4.86 1-1.6 2.02-3.2 3-4.84 1-1.64 1.98-3.34 2.94-5.02 0.96-1.66 1.94-3.3 2.86-5 0.96-1.7 1.86-3.44 2.78-5.16 0.92-1.72 1.84-3.42 2.72-5.16 0.9-1.74 1.76-3.54 2.62-5.32 0.86-1.76 1.74-3.5 2.56-5.28 0.84-1.82 1.64-3.64 2.46-5.48 0.8-1.8 1.62-3.58 2.4-5.42 0.8-1.84 1.54-3.74 2.3-5.6 0.74-1.84 1.52-3.68 2.22-5.54 0.74-1.9 1.44-3.84 2.14-5.76 0.7-1.86 1.4-3.72 2.06-5.62 0.68-1.94 1.32-3.94 1.98-5.92 0.62-1.88 1.28-3.76 1.88-5.68 0.62-2.02 1.2-4.06 1.82-6.1 0.56-1.9 1.14-3.78 1.68-5.7 0.58-2.08 1.1-4.2 1.64-6.28 0.5-1.92 1.02-3.82 1.5-5.74 0.52-2.14 0.98-4.3 1.48-6.44 0.44-1.92 0.9-3.82 1.3-5.74 0.46-2.2 0.88-4.44 1.3-6.66 0.38-1.9 0.78-3.78 1.12-5.7 0.42-2.42 0.8-4.86 1.18-7.3 0.28-1.72 0.58-3.42 0.84-5.14v-0.04c3-20.26 4.5-41.06 4.5-61.84 0-0.94 0-1.88-0.02-2.82zM454.4 341a45.572 45.572 0 0 0 41.6 27.06h32.02c25.18 0 47.7 14.04 58.82 36.64 4.42 9.06 6.66 18.78 6.66 28.86 0 36.12-29.36 65.52-65.48 65.52H522v52.34c0 5.52-4.46 10-10 10-5.52 0-10-4.48-10-10v-52.34h-61.52c-5.52 0-10-4.48-10-10 0-5.54 4.48-10 10-10h71.48c0.02 0 0.04-0.02 0.04-0.02 0.02 0 0.04 0.02 0.04 0.02h15.98c25.08 0 45.48-20.42 45.48-45.52 0-7-1.54-13.74-4.62-20.02v-0.02c-7.72-15.7-23.38-25.46-40.86-25.46H496c-25.86 0-49.36-15.28-59.88-38.92v-0.02c-3.74-8.38-5.62-17.32-5.62-26.56 0-36.12 29.38-65.5 65.5-65.5h6v-52.36c0-5.52 4.48-10 10-10 5.54 0 10 4.48 10 10v52.36h61.5c5.54 0 10 4.46 10 10 0 5.52-4.46 10-10 10H496c-25.1 0-45.5 20.4-45.5 45.5 0 6.42 1.3 12.64 3.9 18.44z" fill="#F9C139" p-id="7216"></path><path d="M498.42 257.06H502v-2.16c-1.24 0.66-2.42 1.38-3.58 2.16z m178.06 329.48c-1.38 0.24-2.76 0.46-4.16 0.7-1.58 0.24-3.16 0.5-4.76 0.74-1.38 0.22-2.76 0.42-4.14 0.64-1.62 0.24-3.24 0.46-4.88 0.7-1.38 0.2-2.76 0.4-4.16 0.58l-4.94 0.66-4.22 0.54-5 0.6-4.24 0.48c-1.7 0.2-3.4 0.38-5.1 0.56-1.4 0.14-2.82 0.3-4.24 0.44l-5.18 0.48c-1.42 0.14-2.84 0.28-4.26 0.4-1.74 0.16-3.48 0.3-5.24 0.44l-4.26 0.36c-1.76 0.12-3.54 0.24-5.3 0.38l-4.28 0.3c-1.8 0.12-3.58 0.22-5.38 0.32-1.42 0.08-2.84 0.18-4.26 0.26-1.82 0.1-3.66 0.18-5.5 0.28-1.4 0.06-2.8 0.14-4.2 0.2-1.86 0.08-3.76 0.14-5.64 0.22-1.36 0.04-2.72 0.1-4.08 0.14-2 0.08-4.02 0.12-6.02 0.18-1.26 0.02-2.5 0.06-3.76 0.1-2.2 0.04-4.4 0.08-6.62 0.1l-3.18 0.06a803.656 803.656 0 0 1-19.68 0l-3.18-0.06c-2.22-0.02-4.44-0.06-6.66-0.1-1.22-0.04-2.44-0.08-3.68-0.1-2.04-0.06-4.08-0.1-6.12-0.18-1.32-0.04-2.64-0.1-3.98-0.14-1.92-0.08-3.86-0.14-5.8-0.24-1.34-0.04-2.68-0.12-4.02-0.18-1.92-0.1-3.82-0.18-5.72-0.3-1.34-0.06-2.7-0.16-4.04-0.24-1.88-0.1-3.74-0.22-5.62-0.34-1.36-0.08-2.72-0.2-4.08-0.28-1.84-0.14-3.7-0.26-5.52-0.4-1.38-0.12-2.72-0.24-4.08-0.34-1.82-0.16-3.66-0.3-5.46-0.46-1.36-0.12-2.72-0.26-4.1-0.38-1.78-0.18-3.58-0.34-5.36-0.52l-4.1-0.42c-1.76-0.2-3.5-0.38-5.26-0.58-1.38-0.14-2.74-0.32-4.12-0.48-1.72-0.2-3.42-0.4-5.12-0.62-1.4-0.16-2.78-0.34-4.16-0.52l-5-0.66-4.2-0.6c-1.6-0.24-3.22-0.46-4.82-0.7l-4.26-0.66c-1.56-0.24-3.1-0.48-4.64-0.74-1.44-0.22-2.88-0.48-4.32-0.72-1.48-0.24-2.96-0.5-4.42-0.76-1.48-0.26-2.94-0.52-4.4-0.8-0.84-0.14-1.68-0.3-2.52-0.46-0.92-1.1-1.8-2.2-2.7-3.3-1.04-1.3-2.1-2.58-3.12-3.92-1.26-1.62-2.48-3.28-3.72-4.94-1-1.34-1.98-2.68-2.96-4.04-1.22-1.72-2.4-3.46-3.6-5.2-0.94-1.38-1.88-2.74-2.8-4.16-1.18-1.78-2.32-3.6-3.46-5.42-0.88-1.42-1.78-2.82-2.64-4.26-1.14-1.86-2.22-3.78-3.32-5.68-0.84-1.44-1.68-2.86-2.5-4.34-1.08-1.94-2.12-3.92-3.16-5.9-0.78-1.46-1.58-2.92-2.34-4.42-1.02-2.02-2.02-4.08-3.02-6.14-0.72-1.48-1.46-2.96-2.16-4.46-0.98-2.12-1.92-4.26-2.88-6.42-0.66-1.48-1.34-2.96-1.98-4.46-0.94-2.2-1.84-4.46-2.74-6.7-0.6-1.48-1.22-2.94-1.8-4.44-0.88-2.32-1.74-4.66-2.6-7.02-0.52-1.46-1.08-2.9-1.58-4.36-0.86-2.44-1.68-4.94-2.48-7.42-0.46-1.38-0.94-2.78-1.38-4.18-0.82-2.62-1.6-5.28-2.36-7.92-0.38-1.3-0.78-2.58-1.16-3.9-0.78-2.84-1.52-5.72-2.26-8.62-0.28-1.12-0.6-2.24-0.88-3.38-0.8-3.24-1.52-6.5-2.24-9.78-0.18-0.8-0.38-1.6-0.54-2.4-1.76-8.22-3.24-16.54-4.48-24.96a426.454 426.454 0 0 1-4.5-61.88v-2.02c0.02-0.32 0.02-0.62 0.02-0.94 0.62-80.74 26.74-158.5 73.56-218.94 3.7-4.78 7.48-9.38 11.34-13.8-13.7 11.82-26.8 25.72-39 41.46-46.82 60.44-72.94 138.2-73.56 218.94 0 0.32 0 0.62-0.02 0.94v2.02c0 20.82 1.52 41.62 4.5 61.88 1.24 8.42 2.72 16.74 4.48 24.96 0.16 0.8 0.36 1.6 0.54 2.4 0.72 3.28 1.44 6.54 2.24 9.78 0.28 1.14 0.6 2.26 0.88 3.38 0.74 2.9 1.48 5.78 2.26 8.62 0.38 1.32 0.78 2.6 1.16 3.9 0.76 2.64 1.54 5.3 2.36 7.92 0.44 1.4 0.92 2.8 1.38 4.18 0.8 2.48 1.62 4.98 2.48 7.42 0.5 1.46 1.06 2.9 1.58 4.36 0.86 2.36 1.72 4.7 2.6 7.02 0.58 1.5 1.2 2.96 1.8 4.44 0.9 2.24 1.8 4.5 2.74 6.7 0.64 1.5 1.32 2.98 1.98 4.46 0.96 2.16 1.9 4.3 2.88 6.42 0.7 1.5 1.44 2.98 2.16 4.46 1 2.06 2 4.12 3.02 6.14 0.76 1.5 1.56 2.96 2.34 4.42 1.04 1.98 2.08 3.96 3.16 5.9 0.82 1.48 1.66 2.9 2.5 4.34 1.1 1.9 2.18 3.82 3.32 5.68 0.86 1.44 1.76 2.84 2.64 4.26 1.14 1.82 2.28 3.64 3.46 5.42 0.92 1.42 1.86 2.78 2.8 4.16 1.2 1.74 2.38 3.48 3.6 5.2 0.98 1.36 1.96 2.7 2.96 4.04 1.24 1.66 2.46 3.32 3.72 4.94 1.02 1.34 2.08 2.62 3.12 3.92 0.9 1.1 1.78 2.2 2.7 3.3 0.84 0.16 1.68 0.32 2.52 0.46 1.46 0.28 2.92 0.54 4.4 0.8 1.46 0.26 2.94 0.52 4.42 0.76 1.44 0.24 2.88 0.5 4.32 0.72 1.54 0.26 3.08 0.5 4.64 0.74l4.26 0.66c1.6 0.24 3.22 0.46 4.82 0.7l4.2 0.6 5 0.66c1.38 0.18 2.76 0.36 4.16 0.52 1.7 0.22 3.4 0.42 5.12 0.62 1.38 0.16 2.74 0.34 4.12 0.48 1.76 0.2 3.5 0.38 5.26 0.58l4.1 0.42c1.78 0.18 3.58 0.34 5.36 0.52 1.38 0.12 2.74 0.26 4.1 0.38 1.8 0.16 3.64 0.3 5.46 0.46 1.36 0.1 2.7 0.22 4.08 0.34 1.82 0.14 3.68 0.26 5.52 0.4 1.36 0.08 2.72 0.2 4.08 0.28 1.88 0.12 3.74 0.24 5.62 0.34 1.34 0.08 2.7 0.18 4.04 0.24 1.9 0.12 3.8 0.2 5.72 0.3 1.34 0.06 2.68 0.14 4.02 0.18 1.94 0.1 3.88 0.16 5.8 0.24 1.34 0.04 2.66 0.1 3.98 0.14 2.04 0.08 4.08 0.12 6.12 0.18 1.24 0.02 2.46 0.06 3.68 0.1 2.22 0.04 4.44 0.08 6.66 0.1l3.18 0.06a810.216 810.216 0 0 0 19.68 0l3.18-0.06c2.22-0.02 4.42-0.06 6.62-0.1 1.26-0.04 2.5-0.08 3.76-0.1 2-0.06 4.02-0.1 6.02-0.18 1.36-0.04 2.72-0.1 4.08-0.14 1.88-0.08 3.78-0.14 5.64-0.22 1.4-0.06 2.8-0.14 4.2-0.2 1.84-0.1 3.68-0.18 5.5-0.28 1.42-0.08 2.84-0.18 4.26-0.26 1.8-0.1 3.58-0.2 5.38-0.32l4.28-0.3c1.76-0.14 3.54-0.26 5.3-0.38l4.26-0.36c1.76-0.14 3.5-0.28 5.24-0.44 1.42-0.12 2.84-0.26 4.26-0.4l5.18-0.48c1.42-0.14 2.84-0.3 4.24-0.44 1.7-0.18 3.4-0.36 5.1-0.56l4.24-0.48 5-0.6 4.22-0.54 4.94-0.66c1.4-0.18 2.78-0.38 4.16-0.58 1.64-0.24 3.26-0.46 4.88-0.7 1.38-0.22 2.76-0.42 4.14-0.64 1.6-0.24 3.18-0.5 4.76-0.74 1.4-0.24 2.78-0.46 4.16-0.7 1.54-0.26 3.1-0.52 4.64-0.8 1.38-0.24 2.74-0.48 4.12-0.74 1-0.18 2.02-0.36 3.02-0.56 0.86-1.02 1.68-2.04 2.52-3.08 1.14-1.4 2.28-2.82 3.4-4.26 1.14-1.48 2.28-3.02 3.4-4.54 1.1-1.48 2.2-2.96 3.28-4.46 1.1-1.54 2.18-3.12 3.26-4.7 1.04-1.54 2.12-3.08 3.14-4.66 0.1-0.14 0.2-0.3 0.28-0.44-1.14 0.2-2.28 0.38-3.4 0.58z m-178.06-329.48H502v-2.16c-1.24 0.66-2.42 1.38-3.58 2.16z" opacity=".2" p-id="7217"></path><path d="M498.42 257.06H502v-2.16c-1.24 0.66-2.42 1.38-3.58 2.16z" opacity=".2" p-id="7218"></path><path d="M604.246 138.292a10 10 0 1 0-10.57 16.978c59.194 36.854 98.964 130.646 98.964 233.39 0 9.722-0.342 19.336-1.014 28.574a10 10 0 1 0 19.944 1.452c0.708-9.718 1.068-19.82 1.068-30.026 0.002-111.096-42.544-209.372-108.392-250.368z" fill="#FFFFFF" p-id="7219"></path></svg>